<svg width="150" height="40" viewBox="0 0 150 40" fill="none" xmlns="http://www.w3.org/2000/svg">
<g clip-path="url(#clip0_141_516)">
<path fill-rule="evenodd" clip-rule="evenodd" d="M53.0746 32.7526C53.1079 32.6859 53.1467 32.6192 53.1856 32.5525H53.6017V31.7577H52.9026C53.2965 31.6577 53.685 31.5521 54.0678 31.4298C55.5771 31.8633 56.9255 32.3024 58.1018 32.747H53.0746V32.7526ZM58.6067 31.6354C57.8022 31.3297 56.9255 31.0296 55.9655 30.7295C56.6425 30.4405 57.3194 30.1181 58.0075 29.7513L58.0408 29.7346L57.3916 28.6953L57.3583 28.712C56.3095 29.3011 55.2275 29.7791 54.0567 30.1626C52.6862 29.7791 51.1547 29.39 49.4346 28.9954H49.3957L49.1072 30.1626L49.146 30.1737C50.0283 30.3738 50.8717 30.5794 51.6818 30.7851C50.5887 31.0018 49.4124 31.1574 48.1084 31.2519L48.2638 32.4524C49.6399 32.3524 50.8662 32.1912 52.0092 31.9522C51.876 32.2246 51.7318 32.4913 51.5764 32.7414H47.7866V34.0031H50.6553C49.8285 34.9479 48.8076 35.7316 47.5313 36.3818L47.498 36.3985L48.0862 37.4934L48.1195 37.4767C48.7687 37.1433 49.368 36.7709 49.9284 36.3541V39.3442H51.188V36.1984H53.4464V39.9667H54.7059V36.1984H57.2639V37.6435C57.2639 38.0381 57.0198 38.2382 56.537 38.2382C56.1764 38.2382 55.6825 38.1215 55.0777 37.8936L55.0278 37.8769V39.1941H55.0555C55.6992 39.3775 56.2263 39.4665 56.6758 39.4665C57.1862 39.4665 57.5913 39.3553 57.902 39.1274C58.4625 38.7162 58.5291 38.0826 58.5291 37.6435V34.6422H57.2695V34.9368H54.7115V34.2421H53.4519V34.9368H51.5098C51.7817 34.6422 52.037 34.331 52.2756 34.0086H59.3669V32.4524H58.2738L58.6123 31.6354H58.6067Z" fill="#5B7828"/>
<path fill-rule="evenodd" clip-rule="evenodd" d="M67.7068 37.9932H71.5633V36.8483H67.7068V36.248C69.255 36.1924 70.7753 36.0702 72.046 35.8089H72.0848L71.7519 34.6918H71.7186C69.7488 35.0975 67.0465 35.1476 64.6606 35.1476C64.1279 35.1476 63.6229 35.1476 63.1568 35.1476H63.1291C62.7629 35.1476 62.4188 35.1476 62.1137 35.1476H62.0748V36.2925H63.0847C63.6784 36.298 64.3554 36.3036 64.655 36.3036C65.2376 36.3036 65.8369 36.3036 66.4417 36.2925V36.8538H62.5853V37.9987H66.4417V38.6379H61.409V39.7828H72.7285V38.6379H67.6957V37.9987L67.7068 37.9932ZM71.3136 30.4456V30.7402H68.6335V30.4456H71.3136ZM68.5725 32.1352C68.5836 32.0463 68.5891 31.9573 68.6002 31.8684H71.3136V32.1352H68.5725ZM67.4461 30.4789C67.4461 30.2677 67.4405 29.2951 67.4405 29.2951V29.2562H71.2359V28.9616H72.4955V33.1245C72.4955 33.7081 72.4067 34.1082 71.9517 34.4361C71.7242 34.6029 71.3469 34.6863 70.8364 34.6863C70.4701 34.6863 70.115 34.6418 69.8764 34.6084H69.8431V33.5191H69.8875C70.2204 33.5802 70.5423 33.6136 70.7864 33.6136C70.8197 33.6136 70.853 33.6136 70.8808 33.6136C71.1471 33.6025 71.2747 33.5024 71.3025 33.2746H68.2895C68.0176 33.9415 67.5237 34.5529 66.6304 35.0531L66.5971 35.0697L66.02 34.036L66.0533 34.0193C67.4461 33.2468 67.4461 32.0963 67.4461 30.6401V30.4845V30.4789ZM62.1913 33.1745C62.1747 33.5469 62.2968 33.897 62.5409 34.1527C62.8239 34.4473 63.2345 34.6029 63.7395 34.6029C64.3221 34.6029 65.2931 34.3861 66.6304 33.3579L66.6637 33.3357L65.8591 32.402L65.8314 32.4242C64.9602 33.0522 64.311 33.369 63.9004 33.369C63.4898 33.369 63.4287 33.0467 63.4287 32.8522V31.0236H67.0299V29.4952H65.848V29.7898H64.7549V28.7227H63.5231V29.7898H61.248V31.0236H62.1969V33.1801L62.1913 33.1745Z" fill="#5B7828"/>
<path fill-rule="evenodd" clip-rule="evenodd" d="M86.1233 33.764H84.2811C84.2201 33.6529 84.1646 33.5528 84.1035 33.4472L86.3896 30.7405V29.2455H85.1134V29.54H80.286V30.8183H84.5863L83.2934 32.3523C83.138 32.18 83.0049 32.0411 82.9105 31.941L82.8773 31.9077L81.9728 32.7858H81.9673L82.0005 32.8247C82.2502 33.086 82.5332 33.3972 82.7885 33.764H79.7533V35.0423H83.4654C83.6208 35.4758 83.7151 35.9594 83.7151 36.4874C83.7151 37.51 83.5265 38.1325 83.1325 38.4326C82.8717 38.6327 82.4666 38.7383 81.9728 38.7383C81.5122 38.7383 80.974 38.6438 80.408 38.4715L80.347 38.4549V39.7165L80.3803 39.7276C80.8519 39.8999 81.4623 40 82.0061 40C82.7718 40 83.4266 39.8054 83.8982 39.4442C84.8693 38.6994 84.9802 37.3989 84.9802 36.4874C84.9802 35.9705 84.9026 35.487 84.786 35.0423H87.394V33.4695H86.1177V33.764H86.1233ZM76.8402 34.631C77.1232 33.953 77.3562 33.2249 77.5338 32.4412H78.6879C78.5048 33.4972 78.2107 34.4754 77.8112 35.3536C77.4894 35.1035 77.1675 34.8589 76.8402 34.631ZM80.5135 37.7879H80.5079L79.5979 38.6772L79.5646 38.6438C79.1318 38.1992 78.6935 37.7768 78.2385 37.3711C77.5782 38.3993 76.7514 39.2663 75.7581 39.9666L75.7249 39.9888L74.8648 38.9884L74.9092 38.9606C75.8192 38.3104 76.5905 37.4767 77.2064 36.4929C76.9067 36.2539 76.6016 36.0261 76.2908 35.8038C76.1577 36.0483 76.0134 36.2817 75.8636 36.5096L75.8358 36.5485H75.8303L74.7871 35.8093L74.8093 35.7704C75.4308 34.8256 75.9024 33.7084 76.2242 32.4412H74.7871V31.1629H76.4906C76.6127 30.4071 76.6959 29.6067 76.7236 28.7564V28.7119H78.3161V29.5178H77.961C77.9222 30.0847 77.8556 30.6294 77.7779 31.1629H78.8433C78.8544 31.0073 78.8599 30.9128 78.8599 30.9128V30.8684H80.1417V30.9184C80.1417 30.9184 80.114 31.363 80.0529 31.8799C79.8754 33.5195 79.4814 34.9756 78.8877 36.2317C79.437 36.7153 79.9752 37.221 80.4968 37.7546L80.5301 37.7879H80.5135Z" fill="#5B7828"/>
<path fill-rule="evenodd" clip-rule="evenodd" d="M97.0045 31.6131H98.2807V30.8239H101.272V29.251H99.9953V29.5456H98.2807V28.7119H97.0045V29.5456H95.7505V30.8239H97.0045V31.6131ZM92.4268 31.6131H93.703V30.8239H94.957V29.5456H93.703V28.7119H92.4268V29.5456H89.436V30.8239H92.4268V31.6131ZM92.8485 36.3206C92.0328 37.3989 91.145 38.1158 89.7855 38.7994H89.78L90.2183 39.9944H90.2239C91.8497 39.2608 93.0149 38.3048 93.9915 36.8987L92.8485 36.3151H92.8429L92.8485 36.3206ZM97.8646 36.3206L96.7271 36.8875H96.7215V36.8987C97.6981 38.3048 98.8578 39.2552 100.489 39.9944H100.495L100.933 38.805L100.928 38.7939C99.5736 38.1047 98.6858 37.3877 97.8701 36.3151L97.8646 36.3206ZM101.638 34.1531L101.682 34.1642L101.46 35.4036L101.416 35.3925C100.794 35.2646 100.201 35.1035 99.6291 34.9034V36.2206H96.0002V39.9777H94.724V36.2206H91.095V34.9423H94.724V33.1582H96.0002V34.9423H98.3529V34.6477H98.9521C97.6482 34.1086 96.4607 33.3639 95.3621 32.3968C93.6087 33.9419 91.6277 34.9256 89.3083 35.3925L89.2639 35.4036L89.042 34.1642L89.0864 34.1531C91.3281 33.6584 93.2424 32.6636 94.9293 31.1018L95.1068 30.9351H95.6284L95.806 31.1018C97.4928 32.6636 99.4016 33.6584 101.649 34.1531H101.638Z" fill="#5B7828"/>
<path fill-rule="evenodd" clip-rule="evenodd" d="M75.3585 17.4908L73.6717 7.94238C73.655 7.84789 73.5718 7.77564 73.4775 7.77564H70.6476C70.5533 7.77564 70.47 7.84233 70.4534 7.93682L68.7277 17.5019C68.6889 17.7187 68.3726 17.7187 68.3393 17.5019L66.7301 7.93682C66.7135 7.84233 66.6303 7.77008 66.5359 7.77008H64.1333C64.0112 7.77008 63.9169 7.88124 63.9391 8.00351L66.4582 22.3873C66.4749 22.4818 66.5581 22.554 66.6525 22.554H70.0095C70.1038 22.554 70.187 22.4818 70.2037 22.3873L71.8517 13C71.8905 12.7833 72.2013 12.7833 72.2401 13L73.8881 22.3873C73.9047 22.4818 73.988 22.554 74.0823 22.554H77.4393C77.5336 22.554 77.6169 22.4818 77.6335 22.3873L80.1527 8.00351C80.1749 7.88124 80.0805 7.77008 79.9585 7.77008H77.5558C77.4615 7.77008 77.3783 7.84233 77.3616 7.93682L75.758 17.4852C75.7192 17.7076 75.4085 17.7076 75.3696 17.4852L75.3585 17.4908ZM58.3626 22.5596H60.743C60.854 22.5596 60.9427 22.4707 60.9427 22.3595V19.9752C60.9427 19.864 60.854 19.7751 60.743 19.7751H58.3626C58.2516 19.7751 58.1628 19.864 58.1628 19.9752V22.3595C58.1628 22.4707 58.2516 22.5596 58.3626 22.5596ZM94.8237 13.8393C92.3212 12.9222 91.7774 12.4998 91.905 11.605C91.9494 11.2938 92.0881 10.838 92.7706 10.5379C93.8693 10.0544 95.9223 10.21 97.7091 11.4438L99.1573 9.34296C99.2183 9.24848 99.1961 9.12064 99.1018 9.05951C96.7436 7.5033 93.7805 7.08091 91.6609 8.00907C90.2626 8.62044 89.3803 9.7598 89.175 11.2104C88.7034 14.5229 91.8107 15.6678 93.8693 16.4237C95.9612 17.1907 96.9433 17.6575 96.9433 18.6135C96.9433 18.9692 96.849 19.4249 96.1221 19.7584C94.7571 20.3809 92.1159 20.0974 90.3958 18.7246C90.3125 18.658 90.1904 18.6635 90.1239 18.7469L88.5868 20.531C88.5147 20.6143 88.5258 20.7477 88.609 20.8144C90.196 22.1094 92.3878 22.8319 94.4131 22.8319C95.4396 22.8319 96.4217 22.6485 97.2652 22.265C98.8077 21.5647 99.69 20.2364 99.6955 18.6246C99.7066 15.64 96.8823 14.6007 94.8181 13.8393H94.8237ZM111.231 7.97572V13.5669C111.231 13.6781 111.143 13.767 111.032 13.767H105.267C105.156 13.767 105.067 13.6781 105.067 13.5669V7.97572C105.067 7.86457 104.978 7.77564 104.867 7.77564H102.498C102.387 7.77564 102.298 7.86457 102.298 7.97572V22.315C102.298 22.4262 102.387 22.5151 102.498 22.5151H104.867C104.978 22.5151 105.067 22.4262 105.067 22.315V16.7238C105.067 16.6127 105.156 16.5237 105.267 16.5237H111.032C111.143 16.5237 111.231 16.6127 111.231 16.7238V22.315C111.231 22.4262 111.32 22.5151 111.431 22.5151H113.801C113.912 22.5151 114 22.4262 114 22.315V7.97572C114 7.86457 113.912 7.77564 113.801 7.77564H111.431C111.32 7.77564 111.231 7.86457 111.231 7.97572ZM83.3432 22.5651H85.7126C85.8235 22.5651 85.9123 22.4762 85.9123 22.3651V7.98128C85.9123 7.87012 85.8235 7.7812 85.7126 7.7812H83.3432C83.2323 7.7812 83.1435 7.87012 83.1435 7.98128V22.3651C83.1435 22.4762 83.2323 22.5651 83.3432 22.5651ZM51.7761 10.7324V22.3651C51.7761 22.4762 51.8649 22.5651 51.9759 22.5651H54.3508C54.4617 22.5651 54.5505 22.4762 54.5505 22.3651V10.688C54.5505 10.5768 54.6393 10.4879 54.7503 10.4879H57.963C58.074 10.4879 58.1628 10.399 58.1628 10.2878V7.97572C58.1628 7.86457 58.074 7.77564 57.963 7.77564H54.7281C53.1023 7.77564 51.7817 9.09841 51.7817 10.7269L51.7761 10.7324ZM41.5497 15.2343L37.7765 7.8868C37.7432 7.8201 37.6766 7.7812 37.599 7.7812H35.3794C35.2685 7.7812 35.1797 7.87012 35.1797 7.98128V22.3651C35.1797 22.4762 35.2685 22.5651 35.3794 22.5651H37.7488C37.8598 22.5651 37.9485 22.4762 37.9485 22.3651V14.2506C37.9485 14.0449 38.226 13.9727 38.3259 14.1616L40.1181 17.6409C40.1514 17.7076 40.218 17.7465 40.2957 17.7465H43.1644C43.2365 17.7465 43.3087 17.7076 43.342 17.6409L45.1342 14.1616C45.2286 13.9782 45.506 14.0449 45.506 14.2506V22.3651C45.506 22.4762 45.5948 22.5651 45.7058 22.5651H48.0751C48.1861 22.5651 48.2748 22.4762 48.2748 22.3651V7.97572C48.2748 7.86457 48.1861 7.77564 48.0751 7.77564H45.8556C45.7834 7.77564 45.7113 7.8201 45.678 7.8868L41.9048 15.2343C41.8327 15.3788 41.6274 15.3788 41.5553 15.2343H41.5497Z" fill="#5B7828"/>
<path fill-rule="evenodd" clip-rule="evenodd" d="M6.84673 11.4608C6.86338 11.583 6.78015 11.6942 6.65807 11.7164L6.51935 11.7442L2.81276 12.4112L2.67959 12.4334C2.55751 12.4556 2.44099 12.3778 2.4077 12.2611L2.3855 12.1833L0.576594 5.15813C0.54885 5.04141 0.437874 4.94693 0.321349 4.96916C0.199276 4.99139 0.0772021 4.91358 0.0494582 4.79687L0.0050678 4.62457C-0.028225 4.49119 0.0605558 4.3578 0.193727 4.33557L3.10684 3.85203C3.23447 3.8298 3.3177 3.71308 3.30105 3.58525L3.15678 2.57928C3.11794 2.36252 3.20117 1.88454 3.7505 1.49549L4.31093 1.08421C4.41081 1.01196 4.54953 1.02863 4.62721 1.12312L4.6938 1.19537C4.78258 1.30097 4.76593 1.46215 4.64941 1.53996L4.11673 1.92345C3.7727 2.168 3.76715 2.40698 3.76715 2.46812C3.76715 2.47924 3.76715 2.48479 3.76715 2.49591L3.90032 3.46854C3.91697 3.60193 4.03904 3.69085 4.17221 3.66862L6.07545 3.35182C6.20862 3.32959 6.33069 3.42407 6.34734 3.55746L6.36954 3.73531C6.38618 3.86315 6.2974 3.9743 6.17533 3.99653C6.05325 4.01877 5.96447 4.12992 5.98112 4.25775L6.83009 11.3663L6.84118 11.4552L6.84673 11.4608ZM26.4673 22.0541C25.4296 21.3093 24.159 21.0592 22.9271 20.8536C21.7452 20.659 20.0029 20.4812 19.5091 19.7642C18.9764 18.9917 19.3926 18.2525 19.7532 17.7689C19.7532 17.7634 19.7643 17.7523 19.7699 17.7467C20.5023 16.5017 20.3969 15.1845 20.0418 14.2286C19.609 13.0503 18.871 12.0777 18.2107 11.4774C18.2107 11.4774 18.1385 11.3996 18.133 11.3218C18.1274 11.2607 18.1496 11.1662 18.2107 11.1162C18.3383 10.9995 18.6379 10.9605 18.8377 10.9883C19.2871 11.0439 19.5812 11.1162 20.014 11.2773C21.5122 11.8609 22.5443 13.3282 22.7829 14.8955C22.8938 15.5625 22.8828 16.1405 22.8828 16.2405C22.8828 16.2516 22.8828 16.2572 22.8828 16.2683C22.8606 16.3684 22.7496 17.0131 23.2268 17.291C24.048 17.7745 24.7527 17.0353 24.7582 17.0297L24.7749 17.0131L24.7971 17.0242C25.1467 17.202 25.4629 17.2354 25.7459 17.1353C26.2065 16.963 26.4173 16.4684 26.4173 16.4628V16.4517H26.434C26.7392 16.3406 26.9611 16.046 27.0443 15.6458C27.233 14.7177 26.6337 13.4949 25.4407 12.3834C23.937 11.0661 22.167 10.1991 20.4912 9.8712L20.1638 9.81007C19.1429 9.60998 18.1441 9.64333 17.3894 9.69891C16.596 9.75449 16.2519 9.4099 16.1132 9.20426C15.8524 8.80965 15.9079 8.33723 15.9135 8.32056C15.9801 7.63694 16.1188 7.52023 16.1354 7.50911C17.173 6.67543 17.9055 5.7695 18.0941 4.43561C18.2662 3.20176 17.8278 2.11797 17.2119 1.33431C16.6348 0.584002 15.7581 0.122699 14.726 0.0170992C14.7038 0.0170992 14.6761 0.0115413 14.6483 0.0115413C13.0558 -0.11629 11.1304 0.817433 10.6421 2.82938V2.85161H10.6199C10.2481 2.85161 9.89302 3.07393 9.77095 3.42963C9.58784 3.9743 9.95961 4.51342 10.4978 4.57455H10.52V4.59679C10.631 6.05851 11.2303 7.02557 12.4621 7.72587L12.5176 7.75921C13.078 8.0649 13.644 8.41504 13.644 8.76519C13.644 9.0931 13.4609 9.52106 12.9338 9.63777C12.9338 9.63777 12.5842 9.72114 12.0626 9.72114H12.0238C10.6699 9.70447 8.78326 9.23205 7.84552 8.34835C7.74009 8.24831 7.56808 8.34279 7.58472 8.48174C7.65686 9.08199 7.77338 10.0546 7.82332 10.4937C7.83997 10.6271 7.9343 10.7438 8.06747 10.7827C8.44479 10.8883 8.8221 10.9717 9.19942 11.0217C9.41582 11.0495 9.65442 11.0773 9.89302 11.0939C10.3147 11.1328 10.7087 11.144 11.1082 11.1384C11.5299 11.1384 11.9461 11.1051 12.3289 11.0495C12.3289 11.0495 12.3345 11.0495 12.34 11.0495C12.6064 11.0272 13.3777 11.0495 13.9381 11.8331C14.3154 12.3667 14.5429 12.8947 14.6705 13.4616C14.7427 13.7617 14.776 14.0896 14.776 14.4898C14.776 15.0567 14.5707 15.5513 14.21 15.8681C13.8438 16.1961 13.3277 16.3294 12.7174 16.2572C11.591 16.1238 10.7808 16.9797 10.7753 16.9853C10.348 17.4299 10.0151 17.9635 9.29375 18.0024C8.42259 18.0468 7.9121 17.58 7.49039 17.0631C6.88557 16.3239 6.51381 15.9626 6.13094 15.7348C5.38185 15.2846 4.67715 15.2679 4.64386 15.2679C3.28995 15.2512 2.20794 16.2516 2.1802 17.5411C2.16355 18.2914 2.47983 18.9694 3.14569 19.6086C3.94471 20.3311 4.48295 20.6979 4.82142 21.8429C4.82142 21.854 5.21539 22.8766 5.64819 23.3879C6.18643 24.0271 6.55265 24.3439 7.4349 24.3439C9.09954 24.3606 9.63223 22.9933 9.85973 22.4876C10.0484 22.0652 10.2149 21.6372 10.3813 21.2037C10.5644 20.7313 11.0583 20.0143 11.4078 19.6197C12.6341 18.2525 13.5608 18.0969 14.1545 18.1024C14.7982 18.1024 15.4363 18.2914 15.98 18.6304C16.424 18.9083 16.9122 19.3696 17.0898 19.8754C17.0898 19.8754 17.6447 21.8206 19.6312 22.5098C19.6922 22.5265 19.8032 22.5654 19.8642 22.5876C21.0905 23.0767 21.8507 24.255 21.8396 25.6389C21.8285 26.4003 21.5899 26.7782 21.2181 27.2785C20.7243 27.9287 20.4968 28.6679 21.0516 29.3404C21.712 30.113 22.7773 30.3575 23.9037 30.3686C25.352 30.3853 26.7114 29.6628 27.5992 28.3678C28.0209 27.7564 28.2873 27.0506 28.3816 26.3114C28.6091 24.5551 27.91 23.1045 26.4562 22.0596L26.4673 22.0541Z" fill="#5B7828"/>
</g>
<defs>
<clipPath id="clip0_141_516">
<rect width="114" height="40" fill="white"/>
</clipPath>
</defs>
</svg>
